<?xml version="1.0" encoding="UTF-8" standalone="no"?>
<!DOCTYPE svg PUBLIC "-//W3C//DTD SVG 1.1//EN"
 "http://www.w3.org/Graphics/SVG/1.1/DTD/svg11.dtd">
<!-- Generated by graphviz version 15.1.0 (20260618.0150)
 -->
<!-- Title: G Pages: 1 -->
<svg width="614pt" height="657pt"
 viewBox="0.00 0.00 614.00 657.00" xmlns="http://www.w3.org/2000/svg" xmlns:xlink="http://www.w3.org/1999/xlink">
<g id="graph0" class="graph" transform="scale(1 1) rotate(0) translate(4 653)">
<title>G</title><style>.edge>path:hover{stroke-width:8}</style>
<polygon fill="white" stroke="none" points="-4,4 -4,-653 609.69,-653 609.69,4 -4,4"/>
<!-- app_py -->
<g id="node1" class="node">
<title>app_py</title><style>.edge>path:hover{stroke-width:8}</style>
<ellipse fill="#924e4e" stroke="black" cx="317.5" cy="-18" rx="27.21" ry="18"/>
<text xml:space="preserve" text-anchor="middle" x="317.5" y="-14.5" font-family="Helvetica,sans-Serif" font-size="10.00" fill="#ffffff">app.py</text>
</g>
<!-- dotenv -->
<g id="node2" class="node">
<title>dotenv</title><style>.edge>path:hover{stroke-width:8}</style>
<ellipse fill="#a9c247" stroke="black" cx="396.5" cy="-271" rx="27.21" ry="18"/>
<text xml:space="preserve" text-anchor="middle" x="396.5" y="-267.5" font-family="Helvetica,sans-Serif" font-size="10.00" fill="#000000">dotenv</text>
</g>
<!-- src_load_data -->
<g id="node17" class="node">
<title>src_load_data</title><style>.edge>path:hover{stroke-width:8}</style>
<ellipse fill="#9849ac" stroke="black" cx="362.5" cy="-127" rx="44.8" ry="18"/>
<text xml:space="preserve" text-anchor="middle" x="362.5" y="-123.5" font-family="Helvetica,sans-Serif" font-size="10.00" fill="#ffffff">src.load_data</text>
</g>
<!-- dotenv&#45;&gt;src_load_data -->
<g id="edge1" class="edge">
<title>dotenv&#45;&gt;src_load_data</title><style>.edge>path:hover{stroke-width:8}</style>
<path fill="none" stroke="black" d="M415.5,-198C418.22,-179.52 406.19,-162.69 392.91,-150.16"/>
<polygon fill="#a9c247" stroke="black" points="395.58,-147.85 385.74,-143.94 391,-153.14 395.58,-147.85"/>
<path fill="none" stroke="black" d="M402.34,-252.98C406.86,-238.95 412.78,-218.44 415.5,-200"/>
</g>
<!-- src_query_data -->
<g id="node18" class="node">
<title>src_query_data</title><style>.edge>path:hover{stroke-width:8}</style>
<ellipse fill="#9246a4" stroke="black" cx="473.5" cy="-127" rx="48.41" ry="18"/>
<text xml:space="preserve" text-anchor="middle" x="473.5" y="-123.5" font-family="Helvetica,sans-Serif" font-size="10.00" fill="#ffffff">src.query_data</text>
</g>
<!-- dotenv&#45;&gt;src_query_data -->
<g id="edge2" class="edge">
<title>dotenv&#45;&gt;src_query_data</title><style>.edge>path:hover{stroke-width:8}</style>
<path fill="none" stroke="black" d="M415.5,-198C418.22,-179.56 430.78,-163.23 443.52,-150.99"/>
<polygon fill="#a9c247" stroke="black" points="445.57,-153.85 450.69,-144.57 440.9,-148.64 445.57,-153.85"/>
</g>
<!-- flask -->
<g id="node3" class="node">
<title>flask</title><style>.edge>path:hover{stroke-width:8}</style>
<polygon fill="blue" stroke="black" points="227.5,-145 173.5,-145 173.5,-109 227.5,-109 227.5,-145"/>
<text xml:space="preserve" text-anchor="middle" x="200.5" y="-123.5" font-family="Helvetica,sans-Serif" font-size="10.00" fill="white">flask</text>
</g>
<!-- flask&#45;&gt;app_py -->
<g id="edge3" class="edge">
<title>flask&#45;&gt;app_py</title><style>.edge>path:hover{stroke-width:8}</style>
<path fill="none" stroke="black" d="M227.99,-112.94C230.86,-111.6 233.74,-110.27 236.5,-109 272.31,-92.59 320.98,-112.24 317.5,-73"/>
<path fill="none" stroke="black" d="M317.5,-72C316.8,-64.09 316.57,-55.48 316.57,-47.56"/>
<polygon fill="blue" stroke="black" points="320.07,-47.78 316.71,-37.73 313.07,-47.68 320.07,-47.78"/>
</g>
<!-- flask_app -->
<g id="node4" class="node">
<title>flask_app</title><style>.edge>path:hover{stroke-width:8}</style>
<polygon fill="blue" stroke="black" points="238.38,-577 182.62,-577 182.62,-541 238.38,-541 238.38,-577"/>
<text xml:space="preserve" text-anchor="middle" x="210.5" y="-555.5" font-family="Helvetica,sans-Serif" font-size="10.00" fill="white">flask.app</text>
</g>
<!-- flask_app&#45;&gt;flask -->
<g id="edge4" class="edge">
<title>flask_app&#45;&gt;flask</title><style>.edge>path:hover{stroke-width:8}</style>
<path fill="none" stroke="black" d="M238.86,-553.37C271.91,-546.16 323.98,-528.58 339.5,-488"/>
<path fill="none" stroke="black" d="M339.5,-486C350.61,-456.94 333.61,-446.55 339.5,-416"/>
</g>
<!-- flask_ctx -->
<g id="node7" class="node">
<title>flask_ctx</title><style>.edge>path:hover{stroke-width:8}</style>
<polygon fill="blue" stroke="black" points="311.5,-505 257.5,-505 257.5,-469 311.5,-469 311.5,-505"/>
<text xml:space="preserve" text-anchor="middle" x="284.5" y="-483.5" font-family="Helvetica,sans-Serif" font-size="10.00" fill="white">flask.ctx</text>
</g>
<!-- flask_app&#45;&gt;flask_ctx -->
<g id="edge5" class="edge">
<title>flask_app&#45;&gt;flask_ctx</title><style>.edge>path:hover{stroke-width:8}</style>
<path fill="none" stroke="black" d="M236.95,-532.98C243.75,-526.55 251.07,-519.62 257.89,-513.18"/>
<polygon fill="blue" stroke="black" points="234.75,-530.24 229.89,-539.66 239.56,-535.33 234.75,-530.24"/>
<polygon fill="blue" stroke="black" points="260.2,-515.8 265.06,-506.39 255.39,-510.72 260.2,-515.8"/>
</g>
<!-- flask_globals -->
<g id="node8" class="node">
<title>flask_globals</title><style>.edge>path:hover{stroke-width:8}</style>
<polygon fill="blue" stroke="black" points="218.88,-433 148.12,-433 148.12,-397 218.88,-397 218.88,-433"/>
<text xml:space="preserve" text-anchor="middle" x="183.5" y="-411.5" font-family="Helvetica,sans-Serif" font-size="10.00" fill="white">flask.globals</text>
</g>
<!-- flask_app&#45;&gt;flask_globals -->
<g id="edge6" class="edge">
<title>flask_app&#45;&gt;flask_globals</title><style>.edge>path:hover{stroke-width:8}</style>
<path fill="none" stroke="black" d="M205.1,-529.6C200.39,-504.82 193.58,-469.03 188.88,-444.28"/>
<polygon fill="blue" stroke="black" points="201.6,-529.93 206.91,-539.1 208.48,-528.62 201.6,-529.93"/>
<polygon fill="blue" stroke="black" points="192.34,-443.77 187.04,-434.6 185.47,-445.08 192.34,-443.77"/>
</g>
<!-- flask_templating -->
<g id="node12" class="node">
<title>flask_templating</title><style>.edge>path:hover{stroke-width:8}</style>
<polygon fill="blue" stroke="black" points="61,-217 0,-217 0,-181 61,-181 61,-217"/>
<text xml:space="preserve" text-anchor="middle" x="30.5" y="-201.5" font-family="Helvetica,sans-Serif" font-size="10.00" fill="white">flask.</text>
<text xml:space="preserve" text-anchor="middle" x="30.5" y="-189.5" font-family="Helvetica,sans-Serif" font-size="10.00" fill="white">templating</text>
</g>
<!-- flask_app&#45;&gt;flask_templating -->
<g id="edge7" class="edge">
<title>flask_app&#45;&gt;flask_templating</title><style>.edge>path:hover{stroke-width:8}</style>
<path fill="none" stroke="black" d="M179.49,-533.1C170.17,-524.75 160.35,-515 152.5,-505 84.98,-418.93 63.94,-394.36 34.5,-289 29.02,-269.39 28.12,-246.42 28.54,-228.73"/>
<polygon fill="blue" stroke="black" points="177.19,-535.74 187.04,-539.65 181.78,-530.45 177.19,-535.74"/>
<polygon fill="blue" stroke="black" points="32.02,-229.07 28.93,-218.94 25.03,-228.79 32.02,-229.07"/>
</g>
<!-- flask_blueprints -->
<g id="node5" class="node">
<title>flask_blueprints</title><style>.edge>path:hover{stroke-width:8}</style>
<polygon fill="blue" stroke="black" points="175.5,-217 117.5,-217 117.5,-181 175.5,-181 175.5,-217"/>
<text xml:space="preserve" text-anchor="middle" x="146.5" y="-201.5" font-family="Helvetica,sans-Serif" font-size="10.00" fill="white">flask.</text>
<text xml:space="preserve" text-anchor="middle" x="146.5" y="-189.5" font-family="Helvetica,sans-Serif" font-size="10.00" fill="white">blueprints</text>
</g>
<!-- flask_blueprints&#45;&gt;flask -->
<g id="edge8" class="edge">
<title>flask_blueprints&#45;&gt;flask</title><style>.edge>path:hover{stroke-width:8}</style>
<path fill="none" stroke="black" d="M159.85,-180.7C166.06,-172.64 173.58,-162.89 180.46,-153.98"/>
<polygon fill="blue" stroke="black" points="183.04,-156.36 186.38,-146.3 177.5,-152.08 183.04,-156.36"/>
</g>
<!-- flask_config -->
<g id="node6" class="node">
<title>flask_config</title><style>.edge>path:hover{stroke-width:8}</style>
<ellipse fill="#53b67b" stroke="black" cx="271.5" cy="-199" rx="39.84" ry="18"/>
<text xml:space="preserve" text-anchor="middle" x="271.5" y="-195.5" font-family="Helvetica,sans-Serif" font-size="10.00" fill="#000000">flask.config</text>
</g>
<!-- flask_config&#45;&gt;flask -->
<g id="edge9" class="edge">
<title>flask_config&#45;&gt;flask</title><style>.edge>path:hover{stroke-width:8}</style>
<path fill="none" stroke="black" d="M255.39,-182.12C246.69,-173.54 235.76,-162.77 225.95,-153.09"/>
<polygon fill="#53b67b" stroke="black" points="228.7,-150.88 219.12,-146.35 223.78,-155.87 228.7,-150.88"/>
</g>
<!-- flask_ctx&#45;&gt;flask -->
<g id="edge10" class="edge">
<title>flask_ctx&#45;&gt;flask</title><style>.edge>path:hover{stroke-width:8}</style>
<path fill="none" stroke="black" d="M306.02,-468.74C319.72,-455.95 335.6,-437.13 339.5,-416"/>
<path fill="none" stroke="black" d="M339.5,-414C350.95,-351.94 331.38,-334.59 339.5,-272"/>
</g>
<!-- flask_ctx&#45;&gt;flask_globals -->
<g id="edge12" class="edge">
<title>flask_ctx&#45;&gt;flask_globals</title><style>.edge>path:hover{stroke-width:8}</style>
<path fill="none" stroke="black" d="M250.13,-462.18C239.65,-454.92 228.13,-446.93 217.66,-439.68"/>
<polygon fill="blue" stroke="black" points="247.82,-464.83 258.03,-467.65 251.8,-459.08 247.82,-464.83"/>
<polygon fill="blue" stroke="black" points="219.86,-436.94 209.65,-434.12 215.87,-442.7 219.86,-436.94"/>
</g>
<!-- flask_globals&#45;&gt;flask -->
<g id="edge13" class="edge">
<title>flask_globals&#45;&gt;flask</title><style>.edge>path:hover{stroke-width:8}</style>
<path fill="none" stroke="black" d="M339.5,-270C343.5,-239.15 350.4,-229.14 339.5,-200"/>
<path fill="none" stroke="black" d="M301.5,-342C320.81,-312.33 334.95,-307.11 339.5,-272"/>
</g>
<!-- flask_globals&#45;&gt;flask_blueprints -->
<g id="edge15" class="edge">
<title>flask_globals&#45;&gt;flask_blueprints</title><style>.edge>path:hover{stroke-width:8}</style>
<path fill="none" stroke="black" d="M151.5,-342C148.78,-337.17 147.41,-269.01 146.84,-228.91"/>
<polygon fill="blue" stroke="black" points="150.34,-228.93 146.71,-218.98 143.34,-229.03 150.34,-228.93"/>
</g>
<!-- flask_helpers -->
<g id="node9" class="node">
<title>flask_helpers</title><style>.edge>path:hover{stroke-width:8}</style>
<polygon fill="blue" stroke="black" points="137.25,-289 65.75,-289 65.75,-253 137.25,-253 137.25,-289"/>
<text xml:space="preserve" text-anchor="middle" x="101.5" y="-267.5" font-family="Helvetica,sans-Serif" font-size="10.00" fill="white">flask.helpers</text>
</g>
<!-- flask_globals&#45;&gt;flask_helpers -->
<g id="edge17" class="edge">
<title>flask_globals&#45;&gt;flask_helpers</title><style>.edge>path:hover{stroke-width:8}</style>
<path fill="none" stroke="black" d="M151.5,-342C143.04,-326.96 132.03,-311.24 122.49,-298.51"/>
<polygon fill="blue" stroke="black" points="125.33,-296.45 116.48,-290.63 119.76,-300.7 125.33,-296.45"/>
</g>
<!-- flask_json -->
<g id="node10" class="node">
<title>flask_json</title><style>.edge>path:hover{stroke-width:8}</style>
<polygon fill="blue" stroke="black" points="311.5,-289 253.5,-289 253.5,-253 311.5,-253 311.5,-289"/>
<text xml:space="preserve" text-anchor="middle" x="282.5" y="-267.5" font-family="Helvetica,sans-Serif" font-size="10.00" fill="white">flask.json</text>
</g>
<!-- flask_globals&#45;&gt;flask_json -->
<g id="edge18" class="edge">
<title>flask_globals&#45;&gt;flask_json</title><style>.edge>path:hover{stroke-width:8}</style>
<path fill="none" stroke="black" d="M301.5,-342C309.82,-329.22 306.01,-312.86 299.69,-299.17"/>
<polygon fill="blue" stroke="black" points="302.98,-297.9 295.23,-290.67 296.78,-301.15 302.98,-297.9"/>
<path fill="none" stroke="black" d="M219.35,-402.59C246.57,-391.94 282.46,-373.24 301.5,-344"/>
</g>
<!-- flask_globals&#45;&gt;flask_templating -->
<g id="edge19" class="edge">
<title>flask_globals&#45;&gt;flask_templating</title><style>.edge>path:hover{stroke-width:8}</style>
<path fill="none" stroke="black" d="M176.88,-396.78C171.01,-382.27 161.8,-361.2 151.5,-344"/>
<path fill="none" stroke="black" d="M151.5,-342C126.66,-300.52 86.64,-326.8 56.5,-289 42.69,-271.68 36.21,-247.25 33.18,-228.37"/>
<polygon fill="blue" stroke="black" points="36.67,-228.11 31.87,-218.67 29.74,-229.05 36.67,-228.11"/>
</g>
<!-- flask_wrappers -->
<g id="node13" class="node">
<title>flask_wrappers</title><style>.edge>path:hover{stroke-width:8}</style>
<polygon fill="blue" stroke="black" points="259.38,-361 179.62,-361 179.62,-325 259.38,-325 259.38,-361"/>
<text xml:space="preserve" text-anchor="middle" x="219.5" y="-339.5" font-family="Helvetica,sans-Serif" font-size="10.00" fill="white">flask.wrappers</text>
</g>
<!-- flask_globals&#45;&gt;flask_wrappers -->
<g id="edge20" class="edge">
<title>flask_globals&#45;&gt;flask_wrappers</title><style>.edge>path:hover{stroke-width:8}</style>
<path fill="none" stroke="black" d="M197.56,-386.67C200.19,-381.55 202.94,-376.21 205.56,-371.1"/>
<polygon fill="blue" stroke="black" points="194.55,-384.86 193.09,-395.35 200.78,-388.06 194.55,-384.86"/>
<polygon fill="blue" stroke="black" points="208.55,-372.94 210.01,-362.45 202.33,-369.74 208.55,-372.94"/>
</g>
<!-- flask_helpers&#45;&gt;flask -->
<g id="edge21" class="edge">
<title>flask_helpers&#45;&gt;flask</title><style>.edge>path:hover{stroke-width:8}</style>
<path fill="none" stroke="black" d="M98.39,-252.8C95.9,-233.72 94.76,-202.75 108.5,-181 120.87,-161.41 143.28,-148.28 162.89,-139.99"/>
<polygon fill="blue" stroke="black" points="163.96,-143.32 172,-136.42 161.41,-136.8 163.96,-143.32"/>
</g>
<!-- flask_helpers&#45;&gt;flask_app -->
<g id="edge22" class="edge">
<title>flask_helpers&#45;&gt;flask_app</title><style>.edge>path:hover{stroke-width:8}</style>
<path fill="none" stroke="black" d="M103.94,-289.41C108.52,-319.47 119.77,-382.74 139.5,-433 153.53,-468.73 176.33,-506.65 192.3,-531.23"/>
<polygon fill="blue" stroke="black" points="189.21,-532.9 197.64,-539.32 195.05,-529.05 189.21,-532.9"/>
</g>
<!-- flask_helpers&#45;&gt;flask_blueprints -->
<g id="edge23" class="edge">
<title>flask_helpers&#45;&gt;flask_blueprints</title><style>.edge>path:hover{stroke-width:8}</style>
<path fill="none" stroke="black" d="M112.62,-252.7C117.69,-244.81 123.8,-235.3 129.43,-226.55"/>
<polygon fill="blue" stroke="black" points="132.22,-228.68 134.69,-218.38 126.33,-224.9 132.22,-228.68"/>
</g>
<!-- flask_helpers&#45;&gt;flask_templating -->
<g id="edge24" class="edge">
<title>flask_helpers&#45;&gt;flask_templating</title><style>.edge>path:hover{stroke-width:8}</style>
<path fill="none" stroke="black" d="M83.95,-252.7C75.52,-244.39 65.27,-234.28 56,-225.14"/>
<polygon fill="blue" stroke="black" points="58.5,-222.7 48.93,-218.17 53.59,-227.68 58.5,-222.7"/>
</g>
<!-- flask_json&#45;&gt;flask -->
<g id="edge26" class="edge">
<title>flask_json&#45;&gt;flask</title><style>.edge>path:hover{stroke-width:8}</style>
<path fill="none" stroke="black" d="M311.74,-252.57C329.42,-239.56 347.19,-220.55 339.5,-200"/>
<path fill="none" stroke="black" d="M339.5,-198C328.94,-169.78 280.78,-162.27 238.55,-145.56"/>
<polygon fill="blue" stroke="black" points="239.94,-142.35 229.36,-141.69 237.22,-148.8 239.94,-142.35"/>
</g>
<!-- flask_signals -->
<g id="node11" class="node">
<title>flask_signals</title><style>.edge>path:hover{stroke-width:8}</style>
<ellipse fill="#22e771" stroke="black" cx="210.5" cy="-631" rx="42.54" ry="18"/>
<text xml:space="preserve" text-anchor="middle" x="210.5" y="-627.5" font-family="Helvetica,sans-Serif" font-size="10.00" fill="#000000">flask.signals</text>
</g>
<!-- flask_signals&#45;&gt;flask -->
<g id="edge28" class="edge">
<title>flask_signals&#45;&gt;flask</title><style>.edge>path:hover{stroke-width:8}</style>
<path fill="none" stroke="black" d="M339.5,-558C350.12,-528.76 328.39,-517.06 339.5,-488"/>
</g>
<!-- flask_signals&#45;&gt;flask_app -->
<g id="edge29" class="edge">
<title>flask_signals&#45;&gt;flask_app</title><style>.edge>path:hover{stroke-width:8}</style>
<path fill="none" stroke="black" d="M210.5,-612.7C210.5,-605.41 210.5,-596.73 210.5,-588.54"/>
<polygon fill="#22e771" stroke="black" points="214,-588.62 210.5,-578.62 207,-588.62 214,-588.62"/>
</g>
<!-- flask_signals&#45;&gt;flask_ctx -->
<g id="edge30" class="edge">
<title>flask_signals&#45;&gt;flask_ctx</title><style>.edge>path:hover{stroke-width:8}</style>
<path fill="none" stroke="black" d="M249.24,-623.08C282.14,-614.72 326.1,-596.88 339.5,-560"/>
<path fill="none" stroke="black" d="M339.5,-558C345.71,-540.92 334.6,-524.76 320.79,-512.28"/>
<polygon fill="#22e771" stroke="black" points="323.08,-509.63 313.13,-505.97 318.62,-515.03 323.08,-509.63"/>
</g>
<!-- flask_signals&#45;&gt;flask_helpers -->
<g id="edge31" class="edge">
<title>flask_signals&#45;&gt;flask_helpers</title><style>.edge>path:hover{stroke-width:8}</style>
<path fill="none" stroke="black" d="M37.5,-414C26.93,-371.32 55.61,-325.56 77.94,-297.86"/>
<polygon fill="#22e771" stroke="black" points="80.5,-300.26 84.24,-290.35 75.13,-295.77 80.5,-300.26"/>
</g>
<!-- flask_signals&#45;&gt;flask_templating -->
<g id="edge32" class="edge">
<title>flask_signals&#45;&gt;flask_templating</title><style>.edge>path:hover{stroke-width:8}</style>
<path fill="none" stroke="black" d="M37.5,-414C22.64,-343.8 22.13,-324.67 25.5,-253 25.88,-245.03 26.57,-236.41 27.32,-228.48"/>
<polygon fill="#22e771" stroke="black" points="30.79,-228.97 28.32,-218.66 23.82,-228.26 30.79,-228.97"/>
<path fill="none" stroke="black" d="M186.42,-615.68C138.83,-585.34 37.34,-509.64 37.5,-416"/>
</g>
<!-- flask_templating&#45;&gt;flask -->
<g id="edge33" class="edge">
<title>flask_templating&#45;&gt;flask</title><style>.edge>path:hover{stroke-width:8}</style>
<path fill="none" stroke="black" d="M61.29,-185.32C89.79,-173.59 132.25,-156.1 162.78,-143.53"/>
<polygon fill="blue" stroke="black" points="163.72,-146.93 171.63,-139.89 161.05,-140.46 163.72,-146.93"/>
</g>
<!-- flask_wrappers&#45;&gt;flask -->
<g id="edge35" class="edge">
<title>flask_wrappers&#45;&gt;flask</title><style>.edge>path:hover{stroke-width:8}</style>
<path fill="none" stroke="black" d="M203.5,-270C191.85,-232.05 193.67,-185.67 196.62,-156.47"/>
<polygon fill="blue" stroke="black" points="200.09,-156.92 197.75,-146.59 193.14,-156.13 200.09,-156.92"/>
</g>
<!-- flask_wrappers&#45;&gt;flask_app -->
<g id="edge36" class="edge">
<title>flask_wrappers&#45;&gt;flask_app</title><style>.edge>path:hover{stroke-width:8}</style>
<path fill="none" stroke="black" d="M227,-361.3C231.73,-372.57 237.89,-387.96 243,-403.09"/>
<polygon fill="blue" stroke="black" points="239.65,-404.11 246.04,-412.56 246.31,-401.97 239.65,-404.11"/>
<path fill="none" stroke="black" d="M246.5,-416C258.03,-460.83 234.97,-513.69 220.68,-540.5"/>
</g>
<!-- flask_wrappers&#45;&gt;flask_blueprints -->
<g id="edge37" class="edge">
<title>flask_wrappers&#45;&gt;flask_blueprints</title><style>.edge>path:hover{stroke-width:8}</style>
<path fill="none" stroke="black" d="M203.5,-270C198.31,-253.08 186.6,-237.46 175.14,-225.3"/>
<polygon fill="blue" stroke="black" points="177.93,-223.14 168.4,-218.52 172.97,-228.08 177.93,-223.14"/>
<path fill="none" stroke="black" d="M216.25,-324.55C213.42,-310.28 208.91,-289.64 203.5,-272"/>
</g>
<!-- flask_wrappers&#45;&gt;flask_ctx -->
<g id="edge38" class="edge">
<title>flask_wrappers&#45;&gt;flask_ctx</title><style>.edge>path:hover{stroke-width:8}</style>
<path fill="none" stroke="black" d="M246.5,-416C251.46,-435.28 262.86,-455.02 271.89,-468.6"/>
</g>
<!-- flask_wrappers&#45;&gt;flask_helpers -->
<g id="edge40" class="edge">
<title>flask_wrappers&#45;&gt;flask_helpers</title><style>.edge>path:hover{stroke-width:8}</style>
<path fill="none" stroke="black" d="M180.27,-318.73C167.47,-311.14 153.27,-302.71 140.49,-295.13"/>
<polygon fill="blue" stroke="black" points="178.34,-321.65 188.73,-323.74 181.91,-315.63 178.34,-321.65"/>
<polygon fill="blue" stroke="black" points="142.28,-292.12 131.9,-290.03 138.71,-298.15 142.28,-292.12"/>
</g>
<!-- flask_wrappers&#45;&gt;flask_json -->
<g id="edge41" class="edge">
<title>flask_wrappers&#45;&gt;flask_json</title><style>.edge>path:hover{stroke-width:8}</style>
<path fill="none" stroke="black" d="M242.58,-316.36C248.07,-310.26 253.92,-303.75 259.41,-297.65"/>
<polygon fill="blue" stroke="black" points="240.17,-313.8 236.09,-323.57 245.38,-318.48 240.17,-313.8"/>
<polygon fill="blue" stroke="black" points="262.01,-300 266.09,-290.23 256.8,-295.32 262.01,-300"/>
</g>
<!-- psycopg -->
<g id="node14" class="node">
<title>psycopg</title><style>.edge>path:hover{stroke-width:8}</style>
<ellipse fill="#3370cc" stroke="black" cx="473.5" cy="-271" rx="31.72" ry="18"/>
<text xml:space="preserve" text-anchor="middle" x="473.5" y="-267.5" font-family="Helvetica,sans-Serif" font-size="10.00" fill="#ffffff">psycopg</text>
</g>
<!-- psycopg&#45;&gt;src_load_data -->
<g id="edge42" class="edge">
<title>psycopg&#45;&gt;src_load_data</title><style>.edge>path:hover{stroke-width:8}</style>
<path fill="none" stroke="black" d="M476.52,-252.81C478.37,-238.32 479.38,-217.26 473.5,-200"/>
<path fill="none" stroke="black" d="M473.5,-198C468.03,-181.94 431.35,-160.87 401.63,-146.06"/>
<polygon fill="#3370cc" stroke="black" points="403.35,-143.01 392.83,-141.77 400.28,-149.3 403.35,-143.01"/>
</g>
<!-- psycopg&#45;&gt;src_query_data -->
<g id="edge43" class="edge">
<title>psycopg&#45;&gt;src_query_data</title><style>.edge>path:hover{stroke-width:8}</style>
<path fill="none" stroke="black" d="M473.5,-198C469,-184.79 468.54,-169.34 469.39,-156.33"/>
<polygon fill="#3370cc" stroke="black" points="472.85,-156.99 470.33,-146.7 465.88,-156.31 472.85,-156.99"/>
</g>
<!-- psycopg_sql -->
<g id="node15" class="node">
<title>psycopg_sql</title><style>.edge>path:hover{stroke-width:8}</style>
<ellipse fill="#537bb6" stroke="black" cx="564.5" cy="-271" rx="41.19" ry="18"/>
<text xml:space="preserve" text-anchor="middle" x="564.5" y="-267.5" font-family="Helvetica,sans-Serif" font-size="10.00" fill="#ffffff">psycopg.sql</text>
</g>
<!-- psycopg_sql&#45;&gt;src_query_data -->
<g id="edge44" class="edge">
<title>psycopg_sql&#45;&gt;src_query_data</title><style>.edge>path:hover{stroke-width:8}</style>
<path fill="none" stroke="black" d="M553.7,-253.15C538.04,-228.71 508.86,-183.17 490.35,-154.29"/>
<polygon fill="#537bb6" stroke="black" points="493.44,-152.63 485.1,-146.1 487.55,-156.41 493.44,-152.63"/>
</g>
<!-- src -->
<g id="node16" class="node">
<title>src</title><style>.edge>path:hover{stroke-width:8}</style>
<ellipse fill="#a253b6" stroke="black" cx="272.5" cy="-127" rx="27" ry="18"/>
<text xml:space="preserve" text-anchor="middle" x="272.5" y="-123.5" font-family="Helvetica,sans-Serif" font-size="10.00" fill="#ffffff">src</text>
</g>
<!-- src&#45;&gt;app_py -->
<g id="edge45" class="edge">
<title>src&#45;&gt;app_py</title><style>.edge>path:hover{stroke-width:8}</style>
<path fill="none" stroke="black" d="M291.95,-114.19C304.81,-104.72 319.03,-90.19 317.5,-73"/>
</g>
<!-- src_load_data&#45;&gt;app_py -->
<g id="edge46" class="edge">
<title>src_load_data&#45;&gt;app_py</title><style>.edge>path:hover{stroke-width:8}</style>
<path fill="none" stroke="black" d="M340.77,-110.82C329.94,-101.43 318.86,-88.27 317.5,-73"/>
</g>
<!-- src_query_data&#45;&gt;app_py -->
<g id="edge47" class="edge">
<title>src_query_data&#45;&gt;app_py</title><style>.edge>path:hover{stroke-width:8}</style>
<path fill="none" stroke="black" d="M437.4,-114.63C391.41,-100.01 317.78,-76.13 317.5,-73"/>
</g>
</g>
</svg>
